<?xml version="1.0" encoding="utf-8"?>
<!-- Generator: Adobe Illustrator 26.5.2, SVG Export Plug-In . SVG Version: 6.00 Build 0)  -->
<svg version="1.1" id="Layer_1" xmlns="http://www.w3.org/2000/svg" xmlns:xlink="http://www.w3.org/1999/xlink" x="0px" y="0px"
	 viewBox="0 0 308 339.6" style="enable-background:new 0 0 308 339.6;" xml:space="preserve">
<style type="text/css">
	.st0{fill:#775528;}
	.st1{fill:#B75527;}
</style>
<g id="Layer_4">
	<g>
		<ellipse class="st0" cx="37.4" cy="155.5" rx="31.1" ry="14"/>
		<ellipse class="st0" cx="270.6" cy="157.2" rx="31.1" ry="14"/>
	</g>
</g>
<g id="Layer_1_00000109025646744076594280000002344000179061899174_">
	<g>
		<path class="st1" d="M154,126.6c-47.4,0-89.9,4.6-118,11.7c-1.5,0.4-2.7,1.4-3.4,2.7c-9.1,17.8-14.3,37.9-14.3,59.2
			c0,68.5,53.2,124.9,121.5,131.8c1.2,0.1,2.2,0.6,3.1,1.4l0,0l4.3,3.7c3.9,3.3,9.5,3.3,13.4,0l4.3-3.7l0,0c0.9-0.8,1.9-1.3,3.1-1.4
			c68.3-6.9,121.5-63.3,121.5-131.8c0-21.3-5.1-41.4-14.3-59.2c-0.7-1.4-2-2.4-3.4-2.7C243.8,131.2,201.4,126.6,154,126.6z"/>
	</g>
	<g id="Layer_2_00000081648939646714116450000009823154299346715064_">
	</g>
</g>
<g id="Layer_3">
	<path class="st0" d="M154,56.3C69,56.3,0,91.8,0,135.7c0,7.7,2.1,15.2,6.2,22.3c4.9,8.7,15.9,7.6,19.8-1.8c0-0.1,0.1-0.2,0.1-0.2
		c1.5-3.6,4.4-6.2,7.7-7.1c29.3-8.1,72.3-13.2,120.2-13.2s90.8,5.1,120.2,13.2c3.3,0.9,6.2,3.5,7.7,7.1c0,0.1,0.1,0.2,0.1,0.2
		c4,9.4,14.9,10.5,19.8,1.8c4-7.1,6.2-14.5,6.2-22.3C307.9,91.9,239,56.3,154,56.3z"/>
</g>
<g id="Layer_5">
	<g>
		<polygon class="st0" points="166.7,74.4 147,74.4 147,38.3 160.9,38.3 		"/>
		<path class="st0" d="M158,44.2l-35.5-19.4c-1.6-0.9-1.7-3-0.3-4.1l27.5-20.2c1.4-1.1,3.5-0.3,3.8,1.5l8.1,39.7
			C162,43.7,159.8,45.2,158,44.2z"/>
	</g>
</g>
</svg>
