<?xml version="1.0" encoding="utf-8"?>
<!-- Generator: Adobe Illustrator 26.5.2, SVG Export Plug-In . SVG Version: 6.00 Build 0)  -->
<svg version="1.1" xmlns="http://www.w3.org/2000/svg" xmlns:xlink="http://www.w3.org/1999/xlink" x="0px" y="0px"
	 viewBox="0 0 612 792" style="enable-background:new 0 0 612 792;" xml:space="preserve">
<style type="text/css">
	.st0{fill:#775528;}
	.st1{fill:#B75527;}
</style>
<g id="Layer_4">
	<g>
		<ellipse class="st0" cx="163.9" cy="336.7" rx="31.1" ry="14"/>
		<ellipse class="st0" cx="397.1" cy="338.4" rx="31.1" ry="14"/>
	</g>
</g>
<g id="Layer_1">
	<g>
		<path class="st1" d="M280.5,307.8c-47.4,0-89.9,4.6-118,11.7c-1.5,0.4-2.7,1.4-3.4,2.7c-9.1,17.8-14.3,37.9-14.3,59.2
			c0,68.5,53.2,124.9,121.5,131.8c1.2,0.1,2.2,0.6,3.1,1.4c0,0,0,0,0,0l4.3,3.7c3.9,3.3,9.5,3.3,13.4,0l4.3-3.7c0,0,0,0,0,0
			c0.9-0.8,1.9-1.3,3.1-1.4c68.3-6.9,121.5-63.3,121.5-131.8c0-21.3-5.1-41.4-14.3-59.2c-0.7-1.4-2-2.4-3.4-2.7
			C370.3,312.4,327.9,307.8,280.5,307.8z"/>
	</g>
	<g id="Layer_2">
	</g>
</g>
<g id="Layer_3">
	<path class="st0" d="M280.5,237.5c-85,0-154,35.5-154,79.4c0,7.7,2.1,15.2,6.2,22.3c4.9,8.7,15.9,7.6,19.8-1.8
		c0-0.1,0.1-0.2,0.1-0.2c1.5-3.6,4.4-6.2,7.7-7.1c29.3-8.1,72.3-13.2,120.2-13.2c47.9,0,90.8,5.1,120.2,13.2
		c3.3,0.9,6.2,3.5,7.7,7.1c0,0.1,0.1,0.2,0.1,0.2c4,9.4,14.9,10.5,19.8,1.8c4-7.1,6.2-14.5,6.2-22.3
		C434.4,273.1,365.5,237.5,280.5,237.5z"/>
</g>
<g id="Layer_5">
	<g>
		<polygon class="st0" points="293.2,255.6 273.5,255.6 273.5,219.5 287.4,219.5 		"/>
		<path class="st0" d="M284.5,225.4L249,206c-1.6-0.9-1.7-3-0.3-4.1l27.5-20.2c1.4-1.1,3.5-0.3,3.8,1.5l8.1,39.7
			C288.5,224.9,286.3,226.4,284.5,225.4z"/>
	</g>
</g>
</svg>
