<?xml version="1.0" encoding="utf-8"?>
<!-- Generator: Adobe Illustrator 26.5.2, SVG Export Plug-In . SVG Version: 6.00 Build 0)  -->
<svg version="1.1" id="Layer_1" xmlns="http://www.w3.org/2000/svg" xmlns:xlink="http://www.w3.org/1999/xlink" x="0px" y="0px"
	 viewBox="0 0 359.5 412" style="enable-background:new 0 0 359.5 412;" xml:space="preserve">
<style type="text/css">
	.st0{fill:none;stroke:#683F18;stroke-width:22;stroke-miterlimit:10;}
	.st1{fill:#683F18;}
	.st2{fill:#CE1F44;}
	.st3{fill:#F7B1BD;}
</style>
<g id="Layer_2_00000144312161364233837970000003645035962179665832_">
	<path class="st0" d="M191.1,154.6c25.4-2,20.2-269.8-167.1-67.1"/>
	<path class="st1" d="M41.9,108.5L1,93c-1.1-0.4-1.4-1.9-0.4-2.7l33.9-27.7c0.9-0.8,2.3-0.2,2.5,1l7,43.2
		C44.2,108,43,109,41.9,108.5z"/>
</g>
<g id="Layer_1_00000065070848791349098170000013101555287832543644_">
	<path class="st2" d="M270.9,147.3c-19.1-9.3-40.7-12.1-61.8-9.1c-4.2,0.6-8.7,0.9-13.3,0.9c-4.6,0-9.1-0.3-13.3-0.9
		c-21.1-3-42.7-0.2-61.8,9.1c-49.6,24.1-86.3,63.3-88.6,126.3c2.3,60,39,102.3,88.6,126.3c19.1,9.3,40.7,12.1,61.8,9.1
		c4.2-0.6,8.7-0.9,13.3-0.9c4.6,0,9.1,0.3,13.3,0.9c21.1,3,42.7,0.2,61.8-9.1c49.6-24.1,85.2-63.1,88.6-126.3
		C359.4,212.5,320.5,171.4,270.9,147.3z"/>
	
		<ellipse transform="matrix(0.5539 -0.8326 0.8326 0.5539 -25.1641 316.0774)" class="st3" cx="282.4" cy="181.5" rx="16.5" ry="35.7"/>
</g>
</svg>
