<?xml version="1.0" encoding="utf-8"?>
<!-- Generator: Adobe Illustrator 26.5.2, SVG Export Plug-In . SVG Version: 6.00 Build 0)  -->
<svg version="1.1" xmlns="http://www.w3.org/2000/svg" xmlns:xlink="http://www.w3.org/1999/xlink" x="0px" y="0px"
	 viewBox="0 0 612 792" style="enable-background:new 0 0 612 792;" xml:space="preserve">
<style type="text/css">
	.st0{fill:none;stroke:#683F18;stroke-width:22;stroke-miterlimit:10;}
	.st1{fill:#683F18;}
	.st2{fill:#CE1F44;}
	.st3{fill:#F7B1BD;}
</style>
<g id="Layer_2">
	<path class="st0" d="M326.3,312.6c25.4-2,20.2-269.8-167.1-67.1"/>
	<path class="st1" d="M177.1,266.5L136.2,251c-1.1-0.4-1.4-1.9-0.4-2.7l33.9-27.7c0.9-0.8,2.3-0.2,2.5,1l7,43.2
		C179.4,266,178.2,267,177.1,266.5z"/>
</g>
<g id="Layer_1">
	<path class="st2" d="M406.1,305.3c-19.1-9.3-40.7-12.1-61.8-9.1c-4.2,0.6-8.7,0.9-13.3,0.9c-4.6,0-9.1-0.3-13.3-0.9
		c-21.1-3-42.7-0.2-61.8,9.1c-49.6,24.1-86.3,63.3-88.6,126.3c2.3,60,39,102.3,88.6,126.3c19.1,9.3,40.7,12.1,61.8,9.1
		c4.2-0.6,8.7-0.9,13.3-0.9c4.6,0,9.1,0.3,13.3,0.9c21.1,3,42.7,0.2,61.8-9.1c49.6-24.1,85.2-63.1,88.6-126.3
		C494.6,370.5,455.7,329.4,406.1,305.3z"/>
	
		<ellipse transform="matrix(0.5539 -0.8326 0.8326 0.5539 -96.3583 499.0825)" class="st3" cx="417.5" cy="339.5" rx="16.5" ry="35.7"/>
</g>
</svg>
