<?xml version="1.0" encoding="utf-8"?>
<!-- Generator: Adobe Illustrator 26.5.2, SVG Export Plug-In . SVG Version: 6.00 Build 0)  -->
<svg version="1.1" id="Layer_1" xmlns="http://www.w3.org/2000/svg" xmlns:xlink="http://www.w3.org/1999/xlink" x="0px" y="0px"
	 viewBox="0 0 432 432" style="enable-background:new 0 0 432 432;" xml:space="preserve">
<style type="text/css">
	.st0{fill:#EEF2F4;}
	.st1{fill:#EAD32A;}
	.st2{fill:#EE1D43;}
	.st3{fill:#4195D1;}
</style>
<g id="Layer_1_00000171696274015642717540000006755980993248163760_">
	<circle class="st0" cx="216" cy="216" r="216"/>
</g>
<g id="Layer_3">
</g>
<g id="Layer_4">
</g>
<g id="Layer_5">
</g>
<g id="Layer_6">
	<path class="st1" d="M273.2,8.2c-18.2-5-37.4-7.7-57.2-7.7c-37.6,0-72.9,9.6-103.6,26.4L317,113L273.2,8.2z"/>
	<path class="st2" d="M192.3,431.2L311,122.5L4.2,174.2C1.4,187.9,0,202,0,216.5C0,327.8,84.2,419.4,192.3,431.2z"/>
	<path class="st3" d="M317,122.5l108.1,148c0,0,0.1-0.1,0.2-0.4c4.4-17.2,6.7-35.1,6.7-53.7c0-57.2-22.2-109.1-58.5-147.8
		c-1.5,0.1-3,0.2-4.5,0.3L317,122.5z"/>
</g>
<g id="Layer_2_00000114060315622303870630000015209053411743783854_">
	<ellipse transform="matrix(0.7071 -0.7071 0.7071 0.7071 4.4674 255.7865)" class="st0" cx="311" cy="122.5" rx="50.5" ry="56"/>
</g>
</svg>
