<?xml version="1.0" encoding="utf-8"?>
<!-- Generator: Adobe Illustrator 26.5.2, SVG Export Plug-In . SVG Version: 6.00 Build 0)  -->
<svg version="1.1" xmlns="http://www.w3.org/2000/svg" xmlns:xlink="http://www.w3.org/1999/xlink" x="0px" y="0px"
	 viewBox="0 0 612 792" style="enable-background:new 0 0 612 792;" xml:space="preserve">
<style type="text/css">
	.st0{fill:#EEF2F4;}
	.st1{fill:#EAD32A;}
	.st2{fill:#EE1D43;}
	.st3{fill:#4195D1;}
</style>
<g id="Layer_1">
	<circle class="st0" cx="306" cy="396" r="216"/>
</g>
<g id="Layer_3">
</g>
<g id="Layer_4">
</g>
<g id="Layer_5">
</g>
<g id="Layer_6">
	<path class="st1" d="M363.2,188.2c-18.2-5-37.4-7.7-57.2-7.7c-37.6,0-72.9,9.6-103.6,26.4L407,293L363.2,188.2z"/>
	<path class="st2" d="M282.3,611.2L401,302.5L94.2,354.2C91.4,367.9,90,382,90,396.5C90,507.8,174.2,599.4,282.3,611.2z"/>
	<path class="st3" d="M407,302.5l108.1,148c0,0,0.1-0.1,0.2-0.4c4.4-17.2,6.7-35.1,6.7-53.7c0-57.2-22.2-109.1-58.5-147.8
		c-1.5,0.1-3,0.2-4.5,0.3L407,302.5z"/>
</g>
<g id="Layer_2">
	<ellipse transform="matrix(0.7071 -0.7071 0.7071 0.7071 -96.4496 372.15)" class="st0" cx="401" cy="302.5" rx="50.5" ry="56"/>
</g>
</svg>
