<?xml version="1.0" encoding="utf-8"?>
<!-- Generator: Adobe Illustrator 26.5.2, SVG Export Plug-In . SVG Version: 6.00 Build 0)  -->
<svg version="1.1" id="Layer_1" xmlns="http://www.w3.org/2000/svg" xmlns:xlink="http://www.w3.org/1999/xlink" x="0px" y="0px"
	 viewBox="0 0 230.2 314.5" style="enable-background:new 0 0 230.2 314.5;" xml:space="preserve">
<style type="text/css">
	.st0{fill:#DFEDF3;stroke:#1A1A72;stroke-width:4;stroke-miterlimit:10;}
	.st1{fill:#F6AC4C;}
	.st2{fill:#28241F;}
	.st3{fill:#C62433;}
</style>
<path class="st0" d="M197.5,127.9c5.3-11.4,8.3-24.1,8.3-37.5c0-49-39.8-88.8-88.8-88.8c-49,0-88.8,39.8-88.8,88.8
	c0,12.4,2.5,24.2,7.1,34.9c-20.8,19.9-33.6,47.5-33.6,77.9c0,60.6,50.8,109.7,113.4,109.7s113.4-49.1,113.4-109.7
	C228.4,174,216.7,147.5,197.5,127.9z"/>
<path class="st1" d="M53,81l55.5-15.9c1.4-0.4,2.8,0.6,2.9,2.1l1.2,26.8c0.1,1.5-1.3,2.6-2.7,2.3L53.2,85.4C50.8,85,50.7,81.7,53,81
	z"/>
<circle class="st2" cx="145.6" cy="56.5" r="8.4"/>
<circle class="st2" cx="109.6" cy="187.6" r="8.4"/>
<circle class="st2" cx="82" cy="48.1" r="6.6"/>
<circle class="st2" cx="109.6" cy="245.8" r="6.6"/>
<circle class="st2" cx="160.3" cy="103.1" r="6.2"/>
<circle class="st2" cx="125.7" cy="126.8" r="6.3"/>
<circle class="st2" cx="82" cy="125.2" r="6.6"/>
<circle class="st2" cx="53.9" cy="109.2" r="6"/>
<path class="st3" d="M109.6,192.8"/>
</svg>
