<?xml version="1.0" encoding="utf-8"?>
<!-- Generator: Adobe Illustrator 26.5.2, SVG Export Plug-In . SVG Version: 6.00 Build 0)  -->
<svg version="1.1" id="Layer_1" xmlns="http://www.w3.org/2000/svg" xmlns:xlink="http://www.w3.org/1999/xlink" x="0px" y="0px"
	 viewBox="0 0 612 792" style="enable-background:new 0 0 612 792;" xml:space="preserve">
<style type="text/css">
	.st0{fill:#DFEDF3;}
	.st1{fill:#F6AC4C;}
	.st2{fill:#28241F;}
	.st3{fill:#C62433;}
</style>
<ellipse class="st0" cx="312.6" cy="396" rx="113.4" ry="109.7"/>
<circle class="st0" cx="314.5" cy="283.2" r="88.8"/>
<path class="st1" d="M250.6,273.8l55.5-15.9c1.4-0.4,2.8,0.6,2.9,2.1l1.2,26.8c0.1,1.5-1.3,2.6-2.7,2.3l-56.7-10.9
	C248.4,277.8,248.3,274.5,250.6,273.8z"/>
<circle class="st2" cx="343.2" cy="249.3" r="8.4"/>
<circle class="st2" cx="307.2" cy="380.4" r="8.4"/>
<circle class="st2" cx="279.6" cy="240.9" r="6.6"/>
<circle class="st2" cx="307.2" cy="438.6" r="6.6"/>
<circle class="st2" cx="357.9" cy="295.9" r="6.2"/>
<circle class="st2" cx="323.3" cy="319.6" r="6.3"/>
<circle class="st2" cx="279.6" cy="318" r="6.6"/>
<circle class="st2" cx="251.5" cy="302" r="6"/>
<path class="st3" d="M307.2,385.6"/>
</svg>
