<?xml version="1.0" encoding="utf-8"?>
<!-- Generator: Adobe Illustrator 26.5.2, SVG Export Plug-In . SVG Version: 6.00 Build 0)  -->
<svg version="1.1" id="Layer_1" xmlns="http://www.w3.org/2000/svg" xmlns:xlink="http://www.w3.org/1999/xlink" x="0px" y="0px"
	 viewBox="0 0 226.8 311.3" style="enable-background:new 0 0 226.8 311.3;" xml:space="preserve">
<style type="text/css">
	.st0{fill:#DFEDF3;}
	.st1{fill:#F6AC4C;}
	.st2{fill:#28241F;}
	.st3{fill:#C62433;}
</style>
<ellipse class="st0" cx="113.4" cy="201.6" rx="113.4" ry="109.7"/>
<circle class="st0" cx="115.3" cy="88.8" r="88.8"/>
<path class="st1" d="M51.4,79.4l55.5-15.9c1.4-0.4,2.8,0.6,2.9,2.1l1.2,26.8c0.1,1.5-1.3,2.6-2.7,2.3L51.6,83.8
	C49.2,83.4,49.1,80.1,51.4,79.4z"/>
<circle class="st2" cx="144" cy="54.9" r="8.4"/>
<circle class="st2" cx="108" cy="186" r="8.4"/>
<circle class="st2" cx="80.4" cy="46.5" r="6.6"/>
<circle class="st2" cx="108" cy="244.2" r="6.6"/>
<circle class="st2" cx="158.7" cy="101.5" r="6.2"/>
<circle class="st2" cx="124.1" cy="125.2" r="6.3"/>
<circle class="st2" cx="80.4" cy="123.6" r="6.6"/>
<circle class="st2" cx="52.3" cy="107.6" r="6"/>
<path class="st3" d="M108,191.2"/>
</svg>
