<?xml version="1.0" encoding="utf-8"?>
<!-- Generator: Adobe Illustrator 26.5.2, SVG Export Plug-In . SVG Version: 6.00 Build 0)  -->
<svg version="1.1" id="Layer_1" xmlns="http://www.w3.org/2000/svg" xmlns:xlink="http://www.w3.org/1999/xlink" x="0px" y="0px"
	 viewBox="0 0 504.8 508.8" style="enable-background:new 0 0 504.8 508.8;" xml:space="preserve">
<g>
	<path d="M504.8,462c-15.9,15.7-31.3,30.9-47.1,46.5c-0.3-0.2-1.1-0.9-1.9-1.7c-25.8-25.8-51.7-51.5-77.5-77.4
		c-41.1-41.4-82.1-83-123.2-124.5c-0.8-0.8-1.5-1.8-2.5-3c-34.4,34.9-68.6,69.4-102.8,103.9s-68.4,69-102.2,103
		c-16.2-16-31.7-31.3-47.5-47c68.3-69,136.6-138.1,205.2-207.4C136.7,185.2,68.4,116.1,0,47C15.9,31.3,31.3,16.1,47.1,0.5
		c0.2,0.2,1.1,0.9,1.9,1.7c31.7,31.7,63.5,63.4,95.1,95.2c35.3,35.5,70.5,71.2,105.8,106.8c0.7,0.7,1.3,1.6,2.3,2.8
		c68.8-69.3,137-138.6,205-207c16.2,16,31.7,31.4,47.6,47c-68.3,69-136.6,138.1-205.2,207.4C368.1,323.7,436.5,392.9,504.8,462z"/>
</g>
</svg>
