<?xml version="1.0" encoding="utf-8"?>
<!-- Generator: Adobe Illustrator 26.5.2, SVG Export Plug-In . SVG Version: 6.00 Build 0)  -->
<svg version="1.1" id="Layer_1" xmlns="http://www.w3.org/2000/svg" xmlns:xlink="http://www.w3.org/1999/xlink" x="0px" y="0px"
	 viewBox="0 0 382.6 414.2" style="enable-background:new 0 0 382.6 414.2;" xml:space="preserve">
<style type="text/css">
	.st0{fill:#D34E27;}
</style>
<path class="st0" d="M382.6,233.9l-56.1-4.5l53.6-52.2l0.8-0.4l-0.5,0.1l0.3-0.3l-0.8,0.4L302,188.5l26.7-44.6l-31.7,6.9
	c-10.8,2.4-21.5,5.1-31.9,8.3c-2-22.4-5-44.7-8.9-66.9L248,45.5l-31,69.6L191.5,4.4V3l-0.1,0.5L191.3,3v1.4L165.6,115l-31-69.6
	l-8.2,46.7c-3.9,22.2-6.9,44.6-8.9,66.9c-10.4-3.2-21-6-31.9-8.3l-31.7-6.9l26.7,44.6L2.7,176.9l-0.8-0.4l0.3,0.3l-0.5-0.1l0.8,0.4
	l53.6,52.2L0,233.8l23.9,20c16.3,13.7,33.8,25.9,52.1,36.5l-21.4,57.6l131-23.8V358l-7.7,56.2h13.4h0.1h13.4l-7.7-56.2v-33.9
	l131,23.8l-21.5-57.5c18.4-10.6,35.8-22.8,52.1-36.5L382.6,233.9z"/>
</svg>
