<?xml version="1.0" encoding="utf-8"?>
<!-- Generator: Adobe Illustrator 26.5.2, SVG Export Plug-In . SVG Version: 6.00 Build 0)  -->
<svg version="1.1" id="Layer_1" xmlns="http://www.w3.org/2000/svg" xmlns:xlink="http://www.w3.org/1999/xlink" x="0px" y="0px"
	 viewBox="0 0 612 792" style="enable-background:new 0 0 612 792;" xml:space="preserve">
<style type="text/css">
	.st0{fill:#D34E27;}
</style>
<path class="st0" d="M503,316.3l-56.1-4.5l53.6-52.2l0.8-0.4l-0.5,0.1l0.3-0.3l-0.8,0.4l-77.9,11.5l26.7-44.6l-31.7,6.9
	c-10.8,2.4-21.5,5.1-31.9,8.3c-2-22.4-5-44.7-8.9-66.9l-8.2-46.7l-31,69.6L311.9,86.8v-1.4l-0.1,0.5l-0.1-0.5v1.4l-25.7,110.6
	l-31-69.6l-8.2,46.7c-3.9,22.2-6.9,44.6-8.9,66.9c-10.4-3.2-21-6-31.9-8.3l-31.7-6.9l26.7,44.6l-77.9-11.5l-0.8-0.4l0.3,0.3
	l-0.5-0.1l0.8,0.4l53.6,52.2l-56.1,4.5l23.9,20c16.3,13.7,33.8,25.9,52.1,36.5L175,430.3l131-23.8v33.9l-7.7,56.2h13.4h0.1h13.4
	l-7.7-56.2v-33.9l131,23.8L427,372.8c18.4-10.6,35.8-22.8,52.1-36.5L503,316.3z"/>
</svg>
