<?xml version="1.0" encoding="utf-8"?>
<!-- Generator: Adobe Illustrator 26.5.2, SVG Export Plug-In . SVG Version: 6.00 Build 0)  -->
<svg version="1.1" xmlns="http://www.w3.org/2000/svg" xmlns:xlink="http://www.w3.org/1999/xlink" x="0px" y="0px"
	 viewBox="0 0 612 792" style="enable-background:new 0 0 612 792;" xml:space="preserve">
<style type="text/css">
	.st0{fill:#E29BC4;}
	.st1{fill:#AF207B;}
	.st2{fill:none;stroke:#AF207B;stroke-width:3;stroke-miterlimit:10;}
	.st3{fill:#F7EC9B;}
</style>
<g id="Layer_1">
	<path class="st0" d="M334.3,256.3c-19.8-17.9-66.1-6.5-95.4,32.4c-15.5,20.6-35.4,61.5-30.8,85.4l24.9-7.7l-5.7,25.4
		c24.2,2.6,63.3-20.5,82.6-37.6C346.2,321.7,353.8,274.6,334.3,256.3z"/>
	<path class="st0" d="M343,276.3c9.1-25.1-18.8-63.7-65.8-76.3c-24.9-6.7-70.3-9.7-90.7,3.4l16.5,20.1l-25.7,4.2
		c6.7,23.4,42.7,51,65.9,62.4C286.9,311.8,333.3,301.2,343,276.3z"/>
	<path class="st0" d="M319.1,301.9c26.7-0.7,52.4-40.8,46.9-89.2c-2.9-25.6-16.7-68.9-36.4-83.1l-12.7,22.7l-13.3-22.4
		c-19.3,14.8-31.8,58.4-34,84.2C265.5,262.6,292.4,302,319.1,301.9z"/>
	<path class="st0" d="M299.2,256.3c19.8-17.9,66.1-6.5,95.4,32.4c15.5,20.6,35.4,61.5,30.8,85.4l-24.9-7.7l5.7,25.4
		c-24.2,2.6-63.3-20.5-82.6-37.6C287.3,321.7,279.8,274.6,299.2,256.3z"/>
	<path class="st0" d="M290.5,276.3c-9.1-25.1,18.8-63.7,65.8-76.3c24.9-6.7,70.3-9.7,90.7,3.4l-16.5,20.1l25.7,4.2
		c-6.7,23.4-42.7,51-65.9,62.4C346.7,311.8,300.2,301.2,290.5,276.3z"/>
	<path class="st0" d="M314.4,301.9c-26.7-0.7-52.4-40.8-46.9-89.2c2.9-25.6,16.7-68.9,36.4-83.1l12.7,22.7l13.3-22.4
		c19.3,14.8,31.8,58.4,34,84.2C368,262.6,341.1,302,314.4,301.9z"/>
	<g id="Layer_2">
	</g>
</g>
<g id="Layer_4">
	<path class="st1" d="M323.8,295.8L323.8,295.8c-3.6-1.9-8-1.9-11.7,0l0,0c-9.2,4.7-19.9-2.9-18.2-13v0c0.7-4-0.7-8.1-3.6-10.9l0,0
		c-7.4-7.1-3.3-19.5,6.9-21h0c4.1-0.6,7.6-3.1,9.4-6.7l0,0c4.6-9.1,17.9-9.1,22.5,0l0,0c1.8,3.6,5.4,6.1,9.4,6.7l0,0
		c10.3,1.5,14.4,13.9,6.9,21l0,0c-3,2.8-4.3,6.9-3.6,10.9v0C343.7,292.8,333,300.5,323.8,295.8z"/>
</g>
<g id="Layer_5">
	<path class="st2" d="M353.1,222.2c0,0-26.7,67.1-41.9,44"/>
	<path class="st2" d="M250.7,278.1c0,0,20.7,39.3,63-13.4c14.1-17.6-48.8-35.7-48.8-35.7"/>
	<path class="st2" d="M347.8,324.8c0,0-4.9-37.6-32.1-50.1"/>
	<path class="st2" d="M371.7,274.7c0,0-31.4-21.3-52.5-7.4"/>
	<path class="st2" d="M286.6,320c16-59.4,62.2-5.3,27-48.9"/>
</g>
<g id="Layer_3">
	<circle class="st3" cx="264.8" cy="227.8" r="10.7"/>
	<circle class="st3" cx="353.1" cy="221" r="10.7"/>
	<circle class="st3" cx="371.7" cy="273.5" r="10.7"/>
	<circle class="st3" cx="347.8" cy="323.6" r="10.7"/>
	<circle class="st3" cx="286.6" cy="324.8" r="10.7"/>
	<circle class="st3" cx="250.7" cy="278.1" r="10.7"/>
</g>
</svg>
