<?xml version="1.0" encoding="utf-8"?>
<!-- Generator: Adobe Illustrator 26.5.2, SVG Export Plug-In . SVG Version: 6.00 Build 0)  -->
<svg version="1.1" id="Layer_1" xmlns="http://www.w3.org/2000/svg" xmlns:xlink="http://www.w3.org/1999/xlink" x="0px" y="0px"
	 viewBox="0 0 278.9 262.4" style="enable-background:new 0 0 278.9 262.4;" xml:space="preserve">
<style type="text/css">
	.st0{fill:#E29BC4;}
	.st1{fill:#AF207B;}
	.st2{fill:none;stroke:#AF207B;stroke-width:3;stroke-miterlimit:10;}
	.st3{fill:#F7EC9B;}
</style>
<g id="Layer_1_00000103261653452901908820000004503173779269940906_">
	<path class="st0" d="M157,126.7c-19.8-17.9-66.1-6.5-95.4,32.4c-15.5,20.6-35.4,61.5-30.8,85.4l24.9-7.7L50,262.2
		c24.2,2.6,63.3-20.5,82.6-37.6C168.9,192.1,176.5,145,157,126.7z"/>
	<path class="st0" d="M165.7,146.7c9.1-25.1-18.8-63.7-65.8-76.3C75,63.7,29.6,60.7,9.2,73.8l16.5,20.1L0,98.1
		c6.7,23.4,42.7,51,65.9,62.4C109.6,182.2,156,171.6,165.7,146.7z"/>
	<path class="st0" d="M141.8,172.3c26.7-0.7,52.4-40.8,46.9-89.2C185.8,57.5,172,14.2,152.3,0l-12.7,22.7L126.3,0.3
		c-19.3,14.8-31.8,58.4-34,84.2C88.2,133,115.1,172.4,141.8,172.3z"/>
	<path class="st0" d="M121.9,126.7c19.8-17.9,66.1-6.5,95.4,32.4c15.5,20.6,35.4,61.5,30.8,85.4l-24.9-7.7l5.7,25.4
		c-24.2,2.6-63.3-20.5-82.6-37.6C110,192.1,102.5,145,121.9,126.7z"/>
	<path class="st0" d="M113.2,146.7C104.1,121.6,132,83,179,70.4c24.9-6.7,70.3-9.7,90.7,3.4l-16.5,20.1l25.7,4.2
		c-6.7,23.4-42.7,51-65.9,62.4C169.4,182.2,122.9,171.6,113.2,146.7z"/>
	<path class="st0" d="M137.1,172.3c-26.7-0.7-52.4-40.8-46.9-89.2c2.9-25.6,16.7-68.9,36.4-83.1l12.7,22.7l13.3-22.4
		c19.3,14.8,31.8,58.4,34,84.2C190.7,133,163.8,172.4,137.1,172.3z"/>
	<g id="Layer_2_00000053532350355149519660000017071069485698637710_">
	</g>
</g>
<g id="Layer_4">
	<path class="st1" d="M146.5,166.2L146.5,166.2c-3.6-1.9-8-1.9-11.7,0l0,0c-9.2,4.7-19.9-2.9-18.2-13l0,0c0.7-4-0.7-8.1-3.6-10.9
		l0,0c-7.4-7.1-3.3-19.5,6.9-21l0,0c4.1-0.6,7.6-3.1,9.4-6.7l0,0c4.6-9.1,17.9-9.1,22.5,0l0,0c1.8,3.6,5.4,6.1,9.4,6.7l0,0
		c10.3,1.5,14.4,13.9,6.9,21l0,0c-3,2.8-4.3,6.9-3.6,10.9l0,0C166.4,163.2,155.7,170.9,146.5,166.2z"/>
</g>
<g id="Layer_5">
	<path class="st2" d="M175.8,92.6c0,0-26.7,67.1-41.9,44"/>
	<path class="st2" d="M73.4,148.5c0,0,20.7,39.3,63-13.4c14.1-17.6-48.8-35.7-48.8-35.7"/>
	<path class="st2" d="M170.5,195.2c0,0-4.9-37.6-32.1-50.1"/>
	<path class="st2" d="M194.4,145.1c0,0-31.4-21.3-52.5-7.4"/>
	<path class="st2" d="M109.3,190.4c16-59.4,62.2-5.3,27-48.9"/>
</g>
<g id="Layer_3">
	
		<ellipse transform="matrix(0.1602 -0.9871 0.9871 0.1602 -23.448 168.8402)" class="st3" cx="87.5" cy="98.2" rx="10.7" ry="10.7"/>
	<circle class="st3" cx="175.8" cy="91.4" r="10.7"/>
	<circle class="st3" cx="194.4" cy="143.9" r="10.7"/>
	<circle class="st3" cx="170.5" cy="194" r="10.7"/>
	<circle class="st3" cx="109.3" cy="195.2" r="10.7"/>
	<circle class="st3" cx="73.4" cy="148.5" r="10.7"/>
</g>
</svg>
