<?xml version="1.0" encoding="utf-8"?>
<!-- Generator: Adobe Illustrator 26.5.2, SVG Export Plug-In . SVG Version: 6.00 Build 0)  -->
<svg version="1.1" id="Layer_1" xmlns="http://www.w3.org/2000/svg" xmlns:xlink="http://www.w3.org/1999/xlink" x="0px" y="0px"
	 viewBox="0 0 362.4 361.6" style="enable-background:new 0 0 362.4 361.6;" xml:space="preserve">
<style type="text/css">
	.st0{fill:#97D8E7;stroke:#263A84;stroke-width:3;stroke-miterlimit:10;}
</style>
<polygon class="st0" points="361,175.4 339.8,175.4 356.3,166.9 356.3,153.9 314.3,175.4 278.1,175.4 337.9,144.9 337.9,131.9 
	252.6,175.4 196.9,175.4 236.3,135.9 327.4,106.3 318.2,97.2 254.3,117.9 279.9,92.4 324.8,77.8 315.6,68.6 297.9,74.3 312.9,59.3 
	303.7,50.1 288.7,65.1 294.5,47.4 285.3,38.2 270.7,83.2 245.1,108.7 265.9,44.9 256.7,35.7 227.1,126.7 187.7,166.2 187.7,110.4 
	231.2,25.1 218.2,25.1 187.7,84.9 187.7,48.8 209.1,6.7 196.1,6.7 187.7,23.3 187.7,2.1 174.7,2.1 174.7,23.3 166.2,6.7 153.2,6.7 
	174.7,48.8 174.7,84.9 144.2,25.1 131.2,25.1 174.7,110.4 174.7,166.2 135.3,126.7 105.7,35.7 96.5,44.9 117.2,108.7 91.7,83.2 
	77.1,38.2 67.9,47.4 73.7,65.1 58.7,50.1 49.5,59.3 64.5,74.3 46.8,68.6 37.6,77.8 82.5,92.4 108,117.9 44.2,97.2 35,106.3 
	126.1,135.9 165.5,175.4 109.8,175.4 24.4,131.9 24.4,144.9 84.2,175.4 48.1,175.4 6,153.9 6,166.9 22.6,175.4 1.4,175.4 1.4,188.4 
	22.6,188.4 6,196.8 6,209.8 48.1,188.4 84.2,188.4 24.4,218.8 24.4,231.8 109.8,188.4 165.5,188.4 126.1,227.8 35,257.4 44.2,266.6 
	108,245.8 82.5,271.3 37.6,285.9 46.8,295.1 64.5,289.4 49.5,304.4 58.7,313.6 73.7,298.6 67.9,316.3 77.1,325.5 91.7,280.5 
	117.2,255 96.5,318.8 105.7,328 135.3,237 174.7,197.6 174.7,253.3 131.2,338.6 144.2,338.6 174.7,278.8 174.7,314.9 153.2,357 
	166.2,357 174.7,340.4 174.7,361.6 187.7,361.6 187.7,340.4 196.1,357 209.1,357 187.7,314.9 187.7,278.8 218.2,338.6 231.2,338.6 
	187.7,253.3 187.7,197.6 227.1,237 256.7,328 265.9,318.8 245.1,255 270.7,280.5 285.3,325.5 294.5,316.3 288.7,298.6 303.7,313.6 
	312.9,304.4 297.9,289.4 315.6,295.1 324.8,285.9 279.9,271.3 254.3,245.8 318.2,266.6 327.4,257.4 236.3,227.8 196.9,188.4 
	252.6,188.4 337.9,231.8 337.9,218.8 278.1,188.4 314.3,188.4 356.3,209.8 356.3,196.8 339.8,188.4 361,188.4 "/>
</svg>
