<?xml version="1.0" encoding="utf-8"?>
<!-- Generator: Adobe Illustrator 26.5.2, SVG Export Plug-In . SVG Version: 6.00 Build 0)  -->
<svg version="1.1" id="Layer_1" xmlns="http://www.w3.org/2000/svg" xmlns:xlink="http://www.w3.org/1999/xlink" x="0px" y="0px"
	 viewBox="0 0 612 792" style="enable-background:new 0 0 612 792;" xml:space="preserve">
<style type="text/css">
	.st0{fill:#97D8E7;}
</style>
<polygon class="st0" points="326.7,322.5 326.7,251 370.2,165.7 357.2,165.7 326.7,225.5 326.7,189.4 348.1,147.3 335.1,147.3 
	326.7,163.9 326.7,142.7 313.7,142.7 313.7,163.9 305.2,147.3 292.2,147.3 313.7,189.4 313.7,225.5 283.2,165.7 270.2,165.7 
	313.7,251 313.7,322.5 313.7,393.9 270.2,479.2 283.2,479.2 313.7,419.4 313.7,455.5 292.2,497.6 305.2,497.6 313.7,481 
	313.7,502.2 326.7,502.2 326.7,481 335.1,497.6 348.1,497.6 326.7,455.5 326.7,419.4 357.2,479.2 370.2,479.2 326.7,393.9 "/>
<polygon class="st0" points="324.8,327.1 375.3,276.5 466.4,246.9 457.2,237.8 393.3,258.5 418.9,233 463.8,218.4 454.6,209.2 
	436.9,214.9 451.9,199.9 442.7,190.7 427.7,205.7 433.5,188 424.3,178.8 409.7,223.8 384.1,249.3 404.9,185.5 395.7,176.3 
	366.1,267.3 315.6,317.9 265.1,368.4 174,398 183.2,407.2 247,386.4 221.5,411.9 176.6,426.5 185.8,435.7 203.5,430 188.5,445 
	197.7,454.2 212.7,439.2 206.9,456.9 216.1,466.1 230.7,421.1 256.2,395.6 235.5,459.4 244.7,468.6 274.3,377.6 "/>
<polygon class="st0" points="324.8,317.9 274.3,267.3 244.7,176.3 235.5,185.5 256.2,249.3 230.7,223.8 216.1,178.8 206.9,188 
	212.7,205.7 197.7,190.7 188.5,199.9 203.5,214.9 185.8,209.2 176.6,218.4 221.5,233 247,258.5 183.2,237.8 174,246.9 265.1,276.5 
	315.6,327.1 366.1,377.6 395.7,468.6 404.9,459.4 384.1,395.6 409.7,421.1 424.3,466.1 433.5,456.9 427.7,439.2 442.7,454.2 
	451.9,445 436.9,430 454.6,435.7 463.8,426.5 418.9,411.9 393.3,386.4 457.2,407.2 466.4,398 375.3,368.4 "/>
<polygon class="st0" points="320.2,329 391.6,329 476.9,372.4 476.9,359.4 417.1,329 453.3,329 495.3,350.4 495.3,337.4 478.8,329 
	500,329 500,316 478.8,316 495.3,307.5 495.3,294.5 453.3,316 417.1,316 476.9,285.5 476.9,272.5 391.6,316 320.2,316 248.8,316 
	163.4,272.5 163.4,285.5 223.2,316 187.1,316 145,294.5 145,307.5 161.6,316 140.4,316 140.4,329 161.6,329 145,337.4 145,350.4 
	187.1,329 223.2,329 163.4,359.4 163.4,372.4 248.8,329 "/>
</svg>
