<?xml version="1.0" encoding="utf-8"?>
<!-- Generator: Adobe Illustrator 26.5.2, SVG Export Plug-In . SVG Version: 6.00 Build 0)  -->
<svg version="1.1" id="Layer_1" xmlns="http://www.w3.org/2000/svg" xmlns:xlink="http://www.w3.org/1999/xlink" x="0px" y="0px"
	 viewBox="0 0 359.6 359.5" style="enable-background:new 0 0 359.6 359.5;" xml:space="preserve">
<style type="text/css">
	.st0{fill:#97D8E7;}
</style>
<polygon class="st0" points="186.3,179.8 186.3,108.3 229.8,23 216.8,23 186.3,82.8 186.3,46.7 207.7,4.6 194.7,4.6 186.3,21.2 
	186.3,0 173.3,0 173.3,21.2 164.8,4.6 151.8,4.6 173.3,46.7 173.3,82.8 142.8,23 129.8,23 173.3,108.3 173.3,179.8 173.3,251.2 
	129.8,336.5 142.8,336.5 173.3,276.7 173.3,312.8 151.8,354.9 164.8,354.9 173.3,338.3 173.3,359.5 186.3,359.5 186.3,338.3 
	194.7,354.9 207.7,354.9 186.3,312.8 186.3,276.7 216.8,336.5 229.8,336.5 186.3,251.2 "/>
<polygon class="st0" points="184.4,184.4 234.9,133.8 326,104.2 316.8,95.1 252.9,115.8 278.5,90.3 323.4,75.7 314.2,66.5 
	296.5,72.2 311.5,57.2 302.3,48 287.3,63 293.1,45.3 283.9,36.1 269.3,81.1 243.7,106.6 264.5,42.8 255.3,33.6 225.7,124.6 
	175.2,175.2 124.7,225.7 33.6,255.3 42.8,264.5 106.6,243.7 81.1,269.2 36.2,283.8 45.4,293 63.1,287.3 48.1,302.3 57.3,311.5 
	72.3,296.5 66.5,314.2 75.7,323.4 90.3,278.4 115.8,252.9 95.1,316.7 104.3,325.9 133.9,234.9 "/>
<polygon class="st0" points="184.4,175.2 133.9,124.6 104.3,33.6 95.1,42.8 115.8,106.6 90.3,81.1 75.7,36.1 66.5,45.3 72.3,63 
	57.3,48 48.1,57.2 63.1,72.2 45.4,66.5 36.2,75.7 81.1,90.3 106.6,115.8 42.8,95.1 33.6,104.2 124.7,133.8 175.2,184.4 225.7,234.9 
	255.3,325.9 264.5,316.7 243.7,252.9 269.3,278.4 283.9,323.4 293.1,314.2 287.3,296.5 302.3,311.5 311.5,302.3 296.5,287.3 
	314.2,293 323.4,283.8 278.5,269.2 252.9,243.7 316.8,264.5 326,255.3 234.9,225.7 "/>
<polygon class="st0" points="179.8,186.3 251.2,186.3 336.5,229.7 336.5,216.7 276.7,186.3 312.9,186.3 354.9,207.7 354.9,194.7 
	338.4,186.3 359.6,186.3 359.6,173.3 338.4,173.3 354.9,164.8 354.9,151.8 312.9,173.3 276.7,173.3 336.5,142.8 336.5,129.8 
	251.2,173.3 179.8,173.3 108.4,173.3 23,129.8 23,142.8 82.8,173.3 46.7,173.3 4.6,151.8 4.6,164.8 21.2,173.3 0,173.3 0,186.3 
	21.2,186.3 4.6,194.7 4.6,207.7 46.7,186.3 82.8,186.3 23,216.7 23,229.7 108.4,186.3 "/>
</svg>
